<?xml version="1.0" standalone="no"?>
<!DOCTYPE svg PUBLIC "-//W3C//DTD SVG 20010904//EN"
 "http://www.w3.org/TR/2001/REC-SVG-20010904/DTD/svg10.dtd">
<svg version="1.0" xmlns="http://www.w3.org/2000/svg"
 width="512.000000pt" height="512.000000pt" viewBox="0 0 512.000000 512.000000"
 preserveAspectRatio="xMidYMid meet">
<metadata>
Created by potrace 1.11, written by Peter Selinger 2001-2013
</metadata>
<g transform="translate(0.000000,512.000000) scale(0.100000,-0.100000)"
fill="#000000" stroke="none">
<path d="M2417 4885 c-3 -11 -9 -36 -12 -55 -6 -35 -7 -35 -63 -38 -31 -2 -58
-5 -60 -7 -3 -2 16 -14 42 -27 51 -24 54 -36 30 -93 -8 -20 -13 -39 -11 -42 5
-4 13 2 69 50 12 9 24 17 27 17 3 0 23 -17 44 -37 36 -35 39 -36 32 -13 -4 14
-14 38 -22 54 -14 27 -14 30 14 52 15 13 36 26 46 29 36 13 15 24 -38 21 l-54
-3 -19 56 c-14 43 -20 51 -25 36z"/>
<path d="M1929 4840 c-1 -8 -2 -33 -3 -54 -2 -39 -3 -40 -48 -52 -26 -6 -49
-10 -51 -7 -3 2 -8 0 -11 -6 -4 -6 16 -18 44 -28 l51 -18 -6 -44 c-4 -24 -9
-51 -12 -60 -2 -9 15 5 39 31 l43 47 48 -30 c26 -16 47 -27 47 -24 0 3 -13 26
-29 51 l-28 46 46 43 46 43 -58 -13 c-64 -15 -60 -17 -101 60 -9 17 -16 24
-17 15z"/>
<path d="M2880 4801 c-12 -27 -28 -48 -34 -46 -6 2 -28 7 -50 10 -21 3 -43 8
-50 12 -6 3 10 -16 36 -43 l47 -49 -29 -40 c-16 -22 -29 -43 -30 -48 0 -4 21
6 48 23 l47 29 43 -47 43 -47 -7 40 c-14 75 -13 77 46 101 l55 22 -62 12 c-46
9 -63 17 -64 29 -3 55 -6 81 -11 86 -2 3 -15 -17 -28 -44z"/>
<path d="M3175 4592 c-8 -20 0 -26 120 -94 352 -197 637 -533 789 -928 28 -75
71 -235 81 -301 3 -24 8 -51 10 -59 21 -79 20 -446 -1 -512 -6 -21 5 -23 29
-5 12 8 19 34 24 87 19 220 -3 469 -59 663 -6 23 -12 44 -13 47 -7 33 -64 178
-98 250 -6 14 -36 68 -66 120 -171 301 -451 568 -758 723 -47 24 -52 25 -58 9z"/>
<path d="M1470 4522 c-241 -145 -436 -332 -599 -573 -28 -42 -51 -81 -51 -86
0 -6 10 -8 23 -6 14 3 34 23 52 51 82 132 217 286 360 410 65 57 224 166 292
200 30 16 41 28 40 42 -1 11 -6 20 -12 20 -5 0 -53 -26 -105 -58z"/>
<path d="M2165 4340 c-28 -11 -58 -48 -105 -132 -49 -86 -72 -112 -122 -141
-38 -21 -46 -35 -29 -52 21 -22 28 -80 16 -122 -14 -48 -14 -48 55 -83 33 -17
66 -24 129 -26 76 -3 89 -1 129 22 58 34 141 38 237 10 204 -59 436 -125 456
-129 l25 -6 -7 69 c-11 97 -17 135 -35 205 -27 104 -88 195 -131 195 -23 0
-71 -57 -97 -114 -22 -47 -41 -112 -35 -118 1 -2 -3 -14 -10 -27 -13 -23 -13
-23 -31 17 -20 45 -54 61 -88 43 -32 -17 -89 6 -136 53 -30 32 -50 67 -75 134
-39 105 -83 187 -109 200 -9 6 -26 6 -37 2z m38 -58 c9 -10 42 -72 73 -138 68
-144 94 -180 148 -205 22 -10 35 -19 28 -19 -45 -1 -134 78 -204 180 -17 25
-17 25 -17 -27 -1 -29 -5 -53 -9 -53 -5 0 -9 6 -9 13 0 20 -17 124 -23 147 -1
3 -21 -35 -46 -85 -43 -88 -44 -89 -39 -45 3 25 7 68 10 95 l5 50 -22 -30
c-30 -40 -88 -95 -101 -95 -5 0 7 18 27 40 20 23 48 65 62 94 43 92 82 117
117 78z m625 -202 c35 -40 61 -106 61 -155 l0 -40 -31 68 c-17 37 -34 67 -38
67 -3 0 -14 -25 -24 -56 -10 -31 -19 -54 -21 -52 -1 1 -6 25 -9 52 -4 27 -9
53 -12 58 -3 4 -18 -7 -34 -25 -36 -40 -39 -19 -5 39 24 41 59 74 78 74 5 0
21 -13 35 -30z"/>
<path d="M1720 4034 c-19 -8 -48 -27 -63 -42 -24 -23 -43 -29 -125 -39 -80
-10 -112 -20 -187 -57 -50 -25 -110 -46 -135 -49 -25 -3 -103 -23 -175 -46
-150 -48 -157 -50 -250 -60 -87 -10 -104 -17 -116 -48 -12 -33 -4 -44 34 -42
18 1 54 -2 80 -6 35 -5 54 -3 70 8 23 15 53 23 127 32 25 3 72 11 105 16 33 6
87 12 120 13 33 2 93 13 134 26 72 22 75 22 107 5 38 -20 45 -36 40 -83 -5
-35 32 -116 81 -180 14 -18 23 -34 22 -36 -31 -19 -147 -118 -215 -183 -18
-18 -41 -16 -106 7 -53 18 -59 19 -95 3 -21 -9 -32 -18 -25 -20 6 -3 12 -13
12 -24 0 -18 44 -38 56 -26 3 3 24 -1 47 -9 22 -8 49 -11 60 -8 16 5 19 3 14
-10 -8 -19 13 -71 40 -101 10 -11 43 -40 73 -65 64 -52 89 -80 90 -97 0 -17 2
-17 -72 17 -108 51 -198 55 -198 10 0 -54 70 -200 140 -291 68 -89 204 -218
345 -327 24 -19 166 -102 222 -130 127 -65 372 -153 513 -186 131 -31 178 -35
325 -31 188 6 235 12 235 33 0 24 -197 201 -370 333 -150 114 -242 170 -435
265 -152 75 -155 78 -205 145 -58 78 -110 124 -157 140 -18 6 -33 14 -33 19 0
4 33 54 73 111 121 170 168 258 172 320 6 96 -7 122 -188 359 l-78 103 21 50
c34 78 29 118 -22 163 -32 30 -67 35 -108 18z m-99 -122 c-16 -30 -28 -127
-20 -151 8 -20 -4 -30 -15 -12 -3 4 -27 14 -53 22 l-47 13 34 14 c39 16 29 27
-33 38 -53 9 -34 21 36 23 33 1 36 16 5 19 -13 2 -32 4 -43 6 -11 2 -35 4 -54
5 -19 0 -31 4 -28 7 10 10 117 30 175 33 50 2 53 1 43 -17z m134 -261 c-2 -10
10 -58 27 -106 16 -48 28 -88 26 -89 -14 -12 -371 -186 -374 -183 -3 2 22 26
55 53 57 46 151 101 215 124 43 16 27 21 -35 11 -29 -5 -55 -8 -57 -6 -2 2 22
17 52 35 61 34 68 41 34 34 -13 -3 -36 -6 -52 -8 -29 -2 -29 -2 17 39 53 46
56 54 27 75 -30 21 -25 28 23 33 23 2 43 4 44 5 1 1 0 -6 -2 -17z m277 -180
c38 -54 38 -80 -2 -171 -41 -93 -188 -350 -201 -350 -3 0 0 33 6 72 8 56 15
74 28 76 9 2 15 7 13 10 -2 4 -7 32 -11 62 -4 30 -10 59 -13 64 -5 10 -3 9 61
-18 l38 -17 -25 38 c-14 21 -26 40 -26 43 0 4 18 16 40 29 22 12 40 24 40 26
0 2 -17 1 -39 -2 -21 -3 -47 -1 -56 5 -17 9 -17 10 3 21 34 18 54 67 48 114
-6 44 -34 126 -48 142 -4 5 -8 13 -8 19 0 13 116 -110 152 -163z m-257 -273
c-22 -41 -53 -133 -76 -226 l-10 -44 -41 34 c-31 26 -48 51 -69 108 -16 41
-25 78 -20 83 7 7 217 85 233 86 4 1 -4 -18 -17 -41z m-330 -290 c48 -24 85
-57 85 -74 0 -7 -10 -20 -22 -28 -20 -15 -24 -14 -45 6 -26 24 -28 21 -11 -19
6 -15 12 -30 13 -33 1 -3 6 -16 12 -30 6 -14 18 -42 26 -62 9 -21 14 -38 13
-38 -9 0 -196 259 -196 272 0 42 47 44 125 6z m800 -337 c170 -84 429 -262
560 -384 11 -10 48 -44 83 -75 34 -31 62 -60 62 -63 0 -11 -97 -1 -172 17 -74
18 -85 29 -38 39 40 9 38 25 -2 26 -54 1 -163 11 -167 15 -2 2 19 13 48 25 28
12 50 24 48 26 -2 2 -26 6 -53 8 -27 3 -71 9 -99 13 l-50 8 63 24 c34 14 62
27 62 30 0 3 -44 3 -97 0 -54 -3 -109 -3 -122 -2 -23 4 -22 4 10 24 18 11 49
29 68 39 l36 20 -150 -5 -150 -5 65 19 c36 11 74 22 85 24 11 3 34 9 50 14
l30 9 -25 7 c-52 14 -159 22 -277 21 -67 0 -119 3 -115 7 4 3 36 12 72 19 98
19 101 24 61 114 -11 25 -17 45 -13 45 5 0 62 -27 127 -59z"/>
<path d="M2303 3740 c-75 -35 -105 -40 -221 -36 l-114 5 19 -22 c11 -12 29
-33 40 -45 22 -25 60 -36 157 -47 33 -4 67 -9 75 -10 9 -2 35 -4 59 -4 l44 -1
-37 -42 c-47 -55 -101 -169 -111 -233 -29 -188 50 -384 220 -549 52 -50 154
-124 206 -150 15 -8 12 -5 -73 62 -174 136 -298 424 -262 607 16 78 72 181
141 255 39 42 32 41 209 25 97 -9 98 -10 76 -53 -49 -96 -66 -233 -45 -357 46
-267 232 -453 497 -498 16 -2 25 -1 20 4 -4 4 -20 10 -35 13 -41 7 -148 62
-192 99 -57 47 -119 136 -154 220 -38 90 -42 108 -49 223 -6 102 5 166 45 257
24 56 26 58 56 51 39 -8 105 -45 133 -76 46 -51 62 -95 68 -188 2 -50 12 -120
20 -156 40 -172 165 -312 309 -344 61 -13 73 -5 15 10 -152 40 -249 188 -252
385 -1 116 27 124 83 25 34 -60 53 -73 64 -45 12 33 56 4 71 -46 26 -87 117
-199 193 -238 43 -22 151 -55 158 -48 2 2 -17 12 -43 22 -91 34 -153 89 -204
181 -24 44 -28 55 -13 42 33 -29 69 -23 84 12 7 17 20 30 29 30 10 0 25 15 34
33 12 25 16 28 16 11 1 -32 54 -107 104 -148 44 -36 174 -96 207 -95 8 0 -6 9
-32 19 -71 29 -120 63 -166 115 -46 52 -81 134 -74 171 6 33 31 44 104 49 77
4 101 26 92 83 -7 48 -57 134 -94 166 -55 45 -174 79 -275 78 -209 -4 -256 -1
-395 23 -131 23 -136 24 -249 56 -130 36 -114 32 -239 68 -174 50 -260 59
-319 31z m349 -65 c101 -25 212 -55 248 -65 69 -20 218 -54 285 -65 22 -3 132
-8 245 -11 194 -5 208 -7 263 -31 39 -18 73 -43 102 -77 25 -27 42 -52 39 -55
-2 -3 -11 5 -20 17 -16 23 -83 65 -123 77 -21 6 -23 5 -16 -11 15 -38 22 -80
15 -99 -5 -15 -8 -10 -13 21 -7 40 -39 80 -85 103 -21 11 -22 10 -17 -13 17
-83 19 -80 -23 -38 -22 22 -51 41 -66 44 -25 5 -27 3 -22 -18 3 -13 9 -36 12
-51 6 -28 6 -28 -15 4 -19 30 -89 83 -109 83 -5 0 -7 -12 -4 -27 l5 -28 -22
22 c-30 32 -79 55 -124 61 l-39 4 16 -30 c18 -34 9 -51 -11 -22 -18 26 -77 56
-127 65 l-38 8 22 -44 22 -44 -36 36 c-59 60 -204 122 -331 142 -16 3 -52 10
-80 17 -96 22 -167 26 -330 19 -75 -3 -160 0 -154 5 2 2 29 6 59 10 30 3 80
15 110 26 74 28 135 22 362 -35z"/>
<path d="M1380 3554 c-55 -18 -132 -27 -227 -28 -40 -1 -69 -4 -65 -8 5 -5 95
-10 201 -14 l194 -5 -19 32 c-23 39 -27 41 -84 23z"/>
<path d="M665 3521 c-9 -15 -55 -203 -65 -264 -35 -221 -31 -457 10 -657 11
-52 20 -98 20 -102 0 -5 9 -8 20 -8 24 0 25 16 6 102 -52 230 -52 486 1 733 8
39 17 81 19 94 3 14 7 28 10 33 3 5 9 22 14 37 7 24 5 30 -11 34 -10 3 -21 2
-24 -2z"/>
<path d="M843 3203 c-30 -15 -43 -32 -25 -33 4 -1 23 -3 42 -5 19 -2 60 -6 90
-9 l55 -5 -39 35 c-44 38 -73 42 -123 17z"/>
<path d="M3225 3111 c-6 -11 9 -23 19 -14 9 9 7 23 -3 23 -6 0 -12 -4 -16 -9z"/>
<path d="M845 3104 c-5 -1 -22 -5 -36 -8 -29 -6 -137 -102 -126 -112 6 -6 48
3 187 41 59 17 94 13 123 -12 16 -15 14 -18 -31 -44 -63 -36 -135 -119 -103
-119 4 0 52 21 106 46 65 30 118 48 159 52 l61 7 -65 36 c-36 20 -87 49 -114
64 -46 27 -139 55 -161 49z"/>
<path d="M1065 2830 c-3 -6 1 -7 9 -4 18 7 21 14 7 14 -6 0 -13 -4 -16 -10z"/>
<path d="M991 2789 c-65 -46 -91 -139 -40 -139 25 0 39 30 48 102 1 3 13 20
27 37 33 39 19 40 -35 0z"/>
<path d="M4184 2492 c-43 -39 -214 -173 -279 -218 -237 -166 -431 -231 -687
-230 l-106 1 -4 -38 -4 -38 36 5 c19 3 62 8 95 11 33 3 77 8 98 11 43 6 46 1
50 -71 l2 -49 -50 -8 c-103 -15 -98 -9 -90 -91 4 -40 12 -78 17 -84 7 -9 28
-11 68 -7 32 3 60 2 63 -3 3 -4 8 -29 11 -55 8 -58 1 -64 -82 -70 -37 -2 -54
-23 -47 -59 9 -43 19 -163 19 -223 1 -65 4 -62 -75 -67 -58 -5 -57 -7 -74 171
-3 30 -8 78 -11 105 -2 28 -7 66 -9 85 -2 19 -7 60 -10 90 -4 30 -8 66 -10 80
-2 14 -6 59 -10 100 -8 95 -13 116 -28 101 -6 -6 -21 -11 -34 -11 -27 0 -29
-10 -6 -53 39 -75 11 -229 -49 -272 -21 -14 -21 -17 -7 -28 33 -25 52 -79 50
-147 -1 -36 -3 -101 -4 -145 l-2 -80 -59 0 c-35 0 -64 5 -72 12 -9 10 -12 42
-8 124 2 61 6 113 8 117 2 4 -2 22 -9 40 -11 24 -20 32 -39 32 -14 0 -27 -4
-30 -8 -3 -5 -8 -44 -11 -88 -3 -43 -8 -108 -11 -143 -2 -36 -7 -67 -9 -70 -3
-2 -24 -4 -48 -2 -86 4 -82 1 -81 72 0 63 7 174 21 374 4 55 7 133 7 174 l1
73 -37 4 -36 3 -6 -57 c-8 -85 -23 -256 -32 -377 -8 -112 -12 -135 -35 -171
-44 -72 -153 -101 -235 -64 -53 23 -66 35 -92 84 -21 39 -22 73 -8 236 3 36 8
90 11 120 2 30 7 91 10 135 7 100 16 179 21 184 2 3 -42 23 -98 46 -126 51
-183 78 -273 129 l-69 39 -156 -7 c-85 -3 -164 -8 -175 -10 -11 -2 -47 -7 -80
-11 -32 -4 -68 -9 -80 -12 -11 -2 -31 -6 -44 -9 -156 -32 -275 -70 -389 -125
l-83 -40 38 -47 c21 -26 43 -54 50 -62 34 -43 120 -147 131 -158 7 -8 24 -29
38 -47 l25 -34 -91 -318 c-50 -175 -93 -326 -96 -337 -5 -15 3 -12 41 14 105
72 274 133 430 155 22 4 54 9 70 12 35 6 326 5 405 -1 30 -3 91 -8 135 -11 44
-3 87 -8 95 -10 8 -2 44 -7 80 -10 36 -4 73 -9 82 -10 9 -2 48 -6 85 -10 37
-3 84 -8 103 -10 197 -23 628 -34 815 -20 151 10 217 17 305 31 411 64 711
186 891 364 56 55 119 135 119 152 0 4 -12 6 -27 3 -80 -14 -151 -19 -273 -20
-150 0 -252 9 -350 31 -111 25 -107 21 -63 63 162 157 284 370 343 601 18 69
40 180 35 180 0 0 -10 -8 -21 -18z m-59 -114 c-2 -7 -6 -24 -9 -38 -26 -149
-188 -436 -334 -591 -41 -44 -73 -81 -71 -83 5 -4 187 -53 224 -60 122 -25
214 -34 315 -30 47 1 105 7 130 13 24 5 46 9 47 7 2 -2 -18 -25 -44 -51 -90
-91 -294 -208 -473 -273 -71 -26 -169 -55 -177 -54 -2 1 -17 -3 -34 -8 -18 -5
-51 -12 -73 -15 -23 -3 -54 -8 -71 -11 -50 -10 -25 3 75 39 135 48 460 181
451 185 -6 2 -304 -31 -468 -52 -36 -5 -27 9 15 21 49 14 294 102 300 107 2 3
-27 3 -64 1 -249 -13 -303 -16 -333 -21 -48 -6 -37 1 74 51 54 24 99 46 101
48 3 2 -52 19 -121 37 -69 18 -125 36 -125 40 0 4 26 12 58 19 101 22 101 21
16 55 l-79 31 45 6 c92 14 235 84 333 162 28 23 20 28 -20 12 -56 -21 -153
-47 -187 -50 -17 -2 -62 -6 -101 -9 -38 -3 -63 -3 -55 0 57 25 139 63 225 105
109 53 255 145 215 135 -106 -28 -237 -53 -319 -62 -24 -2 -49 -7 -55 -11 -7
-4 -8 -3 -1 4 6 5 37 20 70 33 151 59 361 183 465 275 54 48 62 53 55 33z
m-2650 -243 c-22 -7 -67 -20 -100 -29 -81 -23 -239 -82 -284 -106 l-36 -19 75
4 c242 12 404 14 370 3 -19 -5 -69 -21 -110 -33 -41 -13 -111 -33 -155 -45
-44 -12 -83 -25 -87 -29 -4 -3 21 -7 55 -8 155 -4 289 -12 295 -17 3 -3 -3 -6
-14 -7 -25 -1 -30 -2 -164 -35 -130 -31 -135 -27 68 -65 117 -21 137 -29 89
-36 -77 -10 -248 -56 -236 -63 8 -5 71 -29 142 -56 70 -26 126 -48 124 -50 -3
-4 -268 -18 -309 -17 -16 0 -28 -2 -28 -6 0 -3 77 -33 171 -66 94 -33 172 -62
174 -65 2 -3 -31 -7 -73 -9 -42 -1 -106 -4 -142 -6 -36 -1 -87 -4 -115 -5 -44
-2 -38 -4 55 -20 145 -25 173 -30 190 -35 8 -2 26 -6 40 -9 14 -3 54 -14 90
-24 l65 -19 -90 0 c-114 1 -191 -8 -285 -34 -80 -22 -253 -99 -264 -118 -4 -6
-11 -11 -15 -11 -4 0 10 51 31 112 41 124 118 416 118 451 0 14 -33 62 -85
122 -47 55 -106 126 -131 157 l-45 58 64 29 c184 84 408 134 547 122 l45 -4
-40 -12z m599 -93 c50 -29 70 -66 74 -137 6 -84 -4 -97 -70 -91 -64 7 -68 10
-68 59 0 53 -11 70 -45 70 -35 0 -47 -19 -41 -65 4 -36 36 -88 141 -233 53
-73 64 -108 61 -189 -1 -44 -8 -73 -25 -99 -78 -126 -310 -95 -349 46 -10 37
-5 119 8 127 5 3 35 3 66 0 l58 -5 3 -49 c4 -56 16 -76 47 -76 78 1 63 81 -43
229 -110 152 -128 209 -101 310 13 49 79 118 117 123 52 7 138 -3 167 -20z"/>
<path d="M1365 2459 c-24 -23 -52 -58 -61 -79 -15 -33 -20 -37 -39 -30 -82 31
-148 18 -183 -36 -24 -36 -24 -36 -80 -31 -32 3 -66 9 -77 13 -52 18 -111 48
-148 75 -22 16 -49 29 -59 29 -28 0 -58 -18 -58 -36 0 -14 51 -69 123 -132 41
-36 45 -49 20 -67 -19 -14 -11 -45 12 -45 9 0 35 11 58 24 96 55 290 113 472
141 30 4 194 12 304 15 3 0 -15 13 -40 29 -24 16 -59 43 -78 59 -33 28 -36 29
-80 17 -25 -7 -59 -18 -75 -24 -16 -6 -31 -9 -34 -7 -6 7 68 81 86 87 14 5 6
39 -9 39 -5 0 -29 -18 -54 -41z"/>
<path d="M3687 2437 c-77 -24 -149 -110 -140 -168 5 -37 -18 -53 -68 -46 -50
7 -51 8 -58 59 -5 37 -10 42 -43 54 -32 11 -47 11 -94 -2 -53 -13 -57 -13 -81
6 -31 24 -90 26 -120 5 -21 -15 -23 -14 -38 19 -28 58 -70 69 -163 44 -4 -1
-21 6 -39 15 -37 19 -61 21 -98 7 -23 -9 -25 -12 -11 -25 8 -8 31 -15 51 -15
19 0 52 -7 71 -15 20 -8 41 -12 47 -8 21 13 70 3 93 -18 13 -12 24 -25 24 -28
0 -3 -27 -6 -60 -6 -95 0 -94 -13 7 -92 49 -38 99 -75 112 -82 15 -9 63 -12
149 -10 110 3 164 9 292 35 66 14 281 119 282 139 2 19 -60 46 -106 47 -27 0
-56 -6 -71 -16 -20 -13 -23 -14 -19 -1 3 8 30 26 59 41 61 29 116 30 180 3 41
-18 55 -17 55 5 0 17 -86 55 -137 60 -21 2 -55 -1 -76 -7z"/>
<path d="M3390 2426 c0 -9 7 -16 16 -16 9 0 14 5 12 12 -6 18 -28 21 -28 4z"/>
<path d="M3507 2422 c-23 -25 -21 -32 6 -32 25 0 47 17 47 37 0 19 -34 16 -53
-5z"/>
<path d="M2369 1943 c-1 -15 -3 -37 -4 -48 -1 -11 -6 -65 -10 -120 -4 -55 -9
-113 -11 -130 -3 -25 -16 -209 -16 -225 0 -35 6 -48 27 -58 48 -22 59 10 70
188 4 52 8 113 10 135 2 22 7 76 10 120 4 44 8 95 10 113 3 37 3 37 -47 46
-36 7 -38 6 -39 -21z"/>
<path d="M2832 1848 c-5 -7 -12 -50 -15 -95 -4 -86 5 -112 37 -100 54 21 70
167 22 199 -16 11 -32 10 -44 -4z"/>
<path d="M1665 1071 c-4 -8 140 -214 220 -312 69 -87 264 -284 350 -356 62
-51 206 -149 263 -177 31 -16 34 -16 80 10 247 137 504 384 730 702 l52 72
-39 0 c-33 0 -42 -5 -64 -38 -22 -35 -176 -232 -201 -258 -183 -195 -293 -290
-445 -384 l-83 -51 -82 51 c-230 146 -431 346 -645 644 -62 87 -75 100 -101
101 -17 1 -33 -1 -35 -4z"/>
<path d="M1850 1060 c-14 -9 157 -226 256 -326 96 -97 175 -155 98 -73 -51 55
-104 124 -131 169 -40 67 -63 110 -58 110 3 0 46 -20 95 -45 50 -25 90 -43 90
-40 0 2 -30 34 -67 70 l-68 65 35 1 c19 0 42 2 50 3 8 2 37 6 64 9 27 4 50 8
52 10 2 2 -29 10 -68 17 -40 7 -80 14 -88 15 -76 14 -246 24 -260 15z"/>
<path d="M2785 992 c6 -5 45 -24 87 -42 l77 -32 -71 -69 c-39 -38 -69 -69 -66
-69 3 0 46 20 97 45 50 25 94 45 97 45 17 0 -162 -238 -221 -294 -33 -31 -20
-27 35 13 36 26 152 139 205 201 43 49 145 185 145 193 0 4 -24 4 -52 2 -118
-11 -303 -4 -332 12 -7 4 -8 2 -1 -5z"/>
<path d="M2519 972 c-1 -7 -2 -15 -4 -19 -31 -111 -26 -103 -70 -104 -22 -1
-57 -1 -78 0 -47 2 -43 -7 28 -50 30 -18 55 -38 55 -44 0 -5 -11 -37 -24 -70
-14 -33 -23 -61 -21 -63 2 -2 29 17 61 42 31 26 60 45 65 44 4 -2 30 -25 58
-51 28 -27 51 -46 51 -43 0 3 -11 36 -25 72 -14 37 -23 69 -20 72 2 3 33 22
67 43 36 22 55 39 46 40 -10 1 -46 2 -80 3 l-61 1 -18 64 c-18 64 -28 84 -30
63z"/>
<path d="M2390 445 c0 -5 127 -95 134 -95 9 0 137 83 133 86 -2 2 -32 -5 -67
-16 l-64 -19 -68 23 c-37 13 -68 23 -68 21z"/>
</g>
</svg>
